name rise38.3101peak57.3503fall81.6963.mot
datacolumns 19
datarows 26
range 17.84660300000000 17.88827400000000
endheader
time	ground_force1_vx	ground_force1_vy	ground_force1_vz	ground_force1_px	ground_force1_py	ground_force1_pz	ground_force2_vx	ground_force2_vy	ground_force2_vz	ground_force2_px	ground_force2_py	ground_force2_pz	ground_torque1_x	ground_torque1_y	ground_torque1_z	ground_torque2_x	ground_torque2_y	ground_torque2_z	
17.84660300000000	-11.64940300000000	40.98741800000000	-12.78596800000000	0.32065000000000	0.00000000000000	0.09508400000000	-67.85032600000000	794.06964900000003	-46.21745300000000	0.11086200000000	0.00000000000000	-0.06849500000000	0.00000000000000	-7.80324900000000	0.00000000000000	0.00000000000000	-18.69759800000000	0.00000000000000	
17.84826900000000	-12.77012700000000	47.99398100000000	-14.40631200000000	0.32460000000000	0.00000000000000	0.09610700000000	-68.45674699999999	791.53886699999998	-45.77943400000000	0.11009700000000	0.00000000000000	-0.06841500000000	0.00000000000000	-8.89932900000000	0.00000000000000	0.00000000000000	-18.63598900000000	0.00000000000000	
17.84993200000000	-13.67252400000000	55.08165800000000	-15.88932800000000	0.32825400000000	0.00000000000000	0.09705000000000	-69.06527600000000	788.89481100000000	-45.31509200000000	0.10933900000000	0.00000000000000	-0.06832900000000	0.00000000000000	-9.93517700000000	0.00000000000000	0.00000000000000	-18.57318800000000	0.00000000000000	
17.85160400000000	-14.32640600000000	62.16040800000000	-17.20140400000000	0.33165600000000	0.00000000000000	0.09792500000000	-69.67556000000000	786.13544800000000	-44.82460800000000	0.10859000000000	0.00000000000000	-0.06823800000000	0.00000000000000	-10.88880100000000	0.00000000000000	0.00000000000000	-18.50920800000000	0.00000000000000	
17.85327400000000	-14.71468100000000	69.16318099999999	-18.32011800000000	0.33484000000000	0.00000000000000	0.09874100000000	-70.28719100000001	783.25864400000000	-44.30820800000000	0.10784900000000	0.00000000000000	-0.06814100000000	0.00000000000000	-11.74453200000000	0.00000000000000	0.00000000000000	-18.44405500000000	0.00000000000000	
17.85493900000000	-14.83308900000000	76.04793600000001	-19.23441000000000	0.33783600000000	0.00000000000000	0.09950600000000	-70.89970099999999	780.26216199999999	-43.76616600000000	0.10711700000000	0.00000000000000	-0.06803900000000	0.00000000000000	-12.49331500000000	0.00000000000000	0.00000000000000	-18.37772500000000	0.00000000000000	
17.85661100000000	-14.68893500000000	82.79726800000000	-19.94380100000000	0.34066600000000	0.00000000000000	0.10022500000000	-71.51256200000000	777.14367100000004	-43.19880400000000	0.10639400000000	0.00000000000000	-0.06793200000000	0.00000000000000	-13.13241000000000	0.00000000000000	0.00000000000000	-18.31020800000000	0.00000000000000	
17.85826900000000	-14.29909200000000	89.41606299999999	-20.45687600000000	0.34335000000000	0.00000000000000	0.10090300000000	-72.12518700000000	773.90074400000003	-42.60649100000000	0.10568100000000	0.00000000000000	-0.06781900000000	0.00000000000000	-13.66463000000000	0.00000000000000	0.00000000000000	-18.24148500000000	0.00000000000000	
17.85994600000000	-13.68754800000000	95.92771000000000	-20.78929200000000	0.34590500000000	0.00000000000000	0.10154500000000	-72.73692300000000	770.53086599999995	-41.98964400000000	0.10497900000000	0.00000000000000	-0.06770100000000	0.00000000000000	-14.09724800000000	0.00000000000000	0.00000000000000	-18.17152800000000	0.00000000000000	
17.86160100000000	-12.88279600000000	102.36944600000000	-20.96154200000000	0.34834500000000	0.00000000000000	0.10215500000000	-73.34705700000001	767.03144099999997	-41.34872700000000	0.10428800000000	0.00000000000000	-0.06757700000000	0.00000000000000	-14.44073200000000	0.00000000000000	0.00000000000000	-18.10030100000000	0.00000000000000	
17.86327300000000	-11.91529900000000	108.78735900000000	-20.99672700000000	0.35068200000000	0.00000000000000	0.10273500000000	-73.95480900000000	763.39979800000003	-40.68424900000000	0.10360800000000	0.00000000000000	-0.06744700000000	0.00000000000000	-14.70743000000000	0.00000000000000	0.00000000000000	-18.02775800000000	0.00000000000000	
17.86493400000000	-10.81522600000000	115.23152500000000	-20.91848900000000	0.35292500000000	0.00000000000000	0.10328800000000	-74.55933700000000	759.63319899999999	-39.99676700000000	0.10294000000000	0.00000000000000	-0.06731200000000	0.00000000000000	-14.91033300000000	0.00000000000000	0.00000000000000	-17.95384400000000	0.00000000000000	
17.86660800000000	-9.61059500000000	121.75163400000000	-20.74926100000000	0.35508300000000	0.00000000000000	0.10381700000000	-75.15973200000001	755.72885099999996	-39.28688400000000	0.10228500000000	0.00000000000000	-0.06717100000000	0.00000000000000	-15.06200200000000	0.00000000000000	0.00000000000000	-17.87849600000000	0.00000000000000	
17.86826700000000	-8.32589100000000	128.39337499999999	-20.50891700000000	0.35716300000000	0.00000000000000	0.10432200000000	-75.75502299999999	751.68391399999996	-38.55524900000000	0.10164300000000	0.00000000000000	-0.06702500000000	0.00000000000000	-15.17369900000000	0.00000000000000	0.00000000000000	-17.80163900000000	0.00000000000000	
17.86994000000000	-6.98119100000000	135.19570899999999	-20.21383900000000	0.35917100000000	0.00000000000000	0.10480700000000	-76.34417000000001	747.49551299999996	-37.80255400000000	0.10101600000000	0.00000000000000	-0.06687200000000	0.00000000000000	-15.25478000000000	0.00000000000000	0.00000000000000	-17.72319000000000	0.00000000000000	
17.87160400000000	-5.59176600000000	142.18910299999999	-19.87642400000000	0.36111300000000	0.00000000000000	0.10527200000000	-76.92607500000000	743.16075699999999	-37.02953700000000	0.10040200000000	0.00000000000000	-0.06671400000000	0.00000000000000	-15.31233500000000	0.00000000000000	0.00000000000000	-17.64305600000000	0.00000000000000	
17.87327100000000	-4.16811600000000	149.39466600000000	-19.50496600000000	0.36299300000000	0.00000000000000	0.10571900000000	-77.49957200000000	738.67674599999998	-36.23697600000000	0.09980400000000	0.00000000000000	-0.06655000000000	0.00000000000000	-15.35105800000000	0.00000000000000	0.00000000000000	-17.56113600000000	0.00000000000000	
17.87493300000000	-2.71634500000000	156.82410300000001	-19.10387900000000	0.36481500000000	0.00000000000000	0.10614900000000	-78.06343900000000	734.04059500000005	-35.42569500000000	0.09922100000000	0.00000000000000	-0.06638000000000	0.00000000000000	-15.37332700000000	0.00000000000000	0.00000000000000	-17.47731800000000	0.00000000000000	
17.87660800000000	-1.23878900000000	164.48033100000001	-18.67415600000000	0.36658200000000	0.00000000000000	0.10656300000000	-78.61639000000000	729.24944600000003	-34.59655700000000	0.09865500000000	0.00000000000000	-0.06620500000000	0.00000000000000	-15.37944600000000	0.00000000000000	0.00000000000000	-17.39148200000000	0.00000000000000	
17.87827100000000	0.26518900000000	172.35859199999999	-18.21400800000000	0.36829700000000	0.00000000000000	0.10696100000000	-79.15708500000000	724.30048799999997	-33.75046200000000	0.09810600000000	0.00000000000000	-0.06602300000000	0.00000000000000	-15.36799000000000	0.00000000000000	0.00000000000000	-17.30349900000000	0.00000000000000	
17.87993500000000	1.79833800000000	180.44789499999999	-17.71959400000000	0.36996200000000	0.00000000000000	0.10734500000000	-79.68412900000000	719.19097899999997	-32.88835100000000	0.09757400000000	0.00000000000000	-0.06583600000000	0.00000000000000	-15.33623500000000	0.00000000000000	0.00000000000000	-17.21323400000000	0.00000000000000	
17.88160400000000	3.36465700000000	188.73260200000001	-17.18576500000000	0.37157800000000	0.00000000000000	0.10771500000000	-80.19607499999999	713.91826600000002	-32.01120100000000	0.09706100000000	0.00000000000000	-0.06564300000000	0.00000000000000	-15.28059400000000	0.00000000000000	0.00000000000000	-17.12054300000000	0.00000000000000	
17.88327200000000	4.96861100000000	197.19403600000001	-16.60677900000000	0.37314800000000	0.00000000000000	0.10807200000000	-80.69142800000000	708.47980199999995	-31.12002100000000	0.09656600000000	0.00000000000000	-0.06544500000000	0.00000000000000	-15.19704900000000	0.00000000000000	0.00000000000000	-17.02527300000000	0.00000000000000	
17.88493600000000	6.61445400000000	205.81197200000000	-15.97692600000000	0.37467200000000	0.00000000000000	0.10841600000000	-81.16864800000000	702.87317199999995	-30.21585600000000	0.09609100000000	0.00000000000000	-0.06524000000000	0.00000000000000	-15.08154500000000	0.00000000000000	0.00000000000000	-16.92726700000000	0.00000000000000	
17.88660100000000	8.30569500000000	214.56592599999999	-15.29103800000000	0.37615200000000	0.00000000000000	0.10874800000000	-81.62615500000000	697.09611199999995	-29.29977800000000	0.09563600000000	0.00000000000000	-0.06503000000000	0.00000000000000	-14.93030800000000	0.00000000000000	0.00000000000000	-16.82636200000000	0.00000000000000	
17.88827400000000	10.04472200000000	223.43620300000001	-14.54487700000000	0.37758700000000	0.00000000000000	0.10906900000000	-82.06233100000000	691.14652799999999	-28.37289000000000	0.09520100000000	0.00000000000000	-0.06481400000000	0.00000000000000	-14.74009700000000	0.00000000000000	0.00000000000000	-16.72239000000000	0.00000000000000	
